{
	"asset":{
		"generator":"Khronos glTF Blender I/O v4.4.55",
		"version":"2.0"
	},
	"scene":0,
	"scenes":[
		{
			"name":"Scene",
			"nodes":[
				0,
				1
			]
		}
	],
	"nodes":[
		{
			"mesh":0,
			"name":"Door_left",
			"translation":[
				-4.199999809265137,
				0,
				0
			]
		},
		{
			"mesh":1,
			"name":"Door_right",
			"translation":[
				4.199999809265137,
				0,
				0
			]
		}
	],
	"animations":[
		{
			"channels":[
				{
					"sampler":0,
					"target":{
						"node":0,
						"path":"translation"
					}
				},
				{
					"sampler":1,
					"target":{
						"node":0,
						"path":"rotation"
					}
				},
				{
					"sampler":2,
					"target":{
						"node":0,
						"path":"scale"
					}
				},
				{
					"sampler":3,
					"target":{
						"node":1,
						"path":"translation"
					}
				},
				{
					"sampler":4,
					"target":{
						"node":1,
						"path":"rotation"
					}
				},
				{
					"sampler":5,
					"target":{
						"node":1,
						"path":"scale"
					}
				}
			],
			"name":"OpenAnim",
			"samplers":[
				{
					"input":18,
					"interpolation":"STEP",
					"output":19
				},
				{
					"input":20,
					"interpolation":"LINEAR",
					"output":21
				},
				{
					"input":18,
					"interpolation":"STEP",
					"output":22
				},
				{
					"input":18,
					"interpolation":"STEP",
					"output":23
				},
				{
					"input":20,
					"interpolation":"LINEAR",
					"output":24
				},
				{
					"input":18,
					"interpolation":"STEP",
					"output":25
				}
			]
		}
	],
	"materials":[
		{
			"doubleSided":true,
			"name":"Material",
			"pbrMetallicRoughness":{
				"baseColorFactor":[
					0.800000011920929,
					0.800000011920929,
					0.800000011920929,
					1
				],
				"metallicFactor":0,
				"roughnessFactor":0.5
			}
		}
	],
	"meshes":[
		{
			"name":"Cube",
			"primitives":[
				{
					"attributes":{
						"POSITION":0,
						"NORMAL":1,
						"TEXCOORD_0":2,
						"TEXCOORD_1":3
					},
					"indices":4,
					"material":0
				},
				{
					"attributes":{
						"POSITION":5,
						"NORMAL":6,
						"TEXCOORD_0":7,
						"TEXCOORD_1":8
					},
					"indices":9
				}
			]
		},
		{
			"name":"Cube.001",
			"primitives":[
				{
					"attributes":{
						"POSITION":10,
						"NORMAL":11,
						"TEXCOORD_0":12,
						"TEXCOORD_1":13
					},
					"indices":4,
					"material":0
				},
				{
					"attributes":{
						"POSITION":14,
						"NORMAL":15,
						"TEXCOORD_0":16,
						"TEXCOORD_1":17
					},
					"indices":9
				}
			]
		}
	],
	"accessors":[
		{
			"bufferView":0,
			"componentType":5126,
			"count":36,
			"max":[
				4.201047897338867,
				9.556539535522461,
				0.5000013709068298
			],
			"min":[
				-0.0020952224731445312,
				0,
				-0.4999990165233612
			],
			"type":"VEC3"
		},
		{
			"bufferView":1,
			"componentType":5126,
			"count":36,
			"type":"VEC3"
		},
		{
			"bufferView":2,
			"componentType":5126,
			"count":36,
			"type":"VEC2"
		},
		{
			"bufferView":3,
			"componentType":5126,
			"count":36,
			"type":"VEC2"
		},
		{
			"bufferView":4,
			"componentType":5123,
			"count":78,
			"type":"SCALAR"
		},
		{
			"bufferView":5,
			"componentType":5126,
			"count":32,
			"max":[
				4.201047897338867,
				9.556539535522461,
				0.5000013113021851
			],
			"min":[
				0,
				7.000295639038086,
				-0.4999990165233612
			],
			"type":"VEC3"
		},
		{
			"bufferView":6,
			"componentType":5126,
			"count":32,
			"type":"VEC3"
		},
		{
			"bufferView":7,
			"componentType":5126,
			"count":32,
			"type":"VEC2"
		},
		{
			"bufferView":8,
			"componentType":5126,
			"count":32,
			"type":"VEC2"
		},
		{
			"bufferView":9,
			"componentType":5123,
			"count":48,
			"type":"SCALAR"
		},
		{
			"bufferView":10,
			"componentType":5126,
			"count":36,
			"max":[
				0.0015421513235196471,
				9.556539535522461,
				0.5000000596046448
			],
			"min":[
				-4.198457717895508,
				0,
				-0.5
			],
			"type":"VEC3"
		},
		{
			"bufferView":11,
			"componentType":5126,
			"count":36,
			"type":"VEC3"
		},
		{
			"bufferView":12,
			"componentType":5126,
			"count":36,
			"type":"VEC2"
		},
		{
			"bufferView":13,
			"componentType":5126,
			"count":36,
			"type":"VEC2"
		},
		{
			"bufferView":14,
			"componentType":5126,
			"count":32,
			"max":[
				-0.0005498987156897783,
				9.556539535522461,
				0.5000000596046448
			],
			"min":[
				-4.198457717895508,
				7.000295639038086,
				-0.5
			],
			"type":"VEC3"
		},
		{
			"bufferView":15,
			"componentType":5126,
			"count":32,
			"type":"VEC3"
		},
		{
			"bufferView":16,
			"componentType":5126,
			"count":32,
			"type":"VEC2"
		},
		{
			"bufferView":17,
			"componentType":5126,
			"count":32,
			"type":"VEC2"
		},
		{
			"bufferView":18,
			"componentType":5126,
			"count":2,
			"max":[
				2
			],
			"min":[
				0.041666666666666664
			],
			"type":"SCALAR"
		},
		{
			"bufferView":19,
			"componentType":5126,
			"count":2,
			"type":"VEC3"
		},
		{
			"bufferView":20,
			"componentType":5126,
			"count":48,
			"max":[
				2
			],
			"min":[
				0.041666666666666664
			],
			"type":"SCALAR"
		},
		{
			"bufferView":21,
			"componentType":5126,
			"count":48,
			"type":"VEC4"
		},
		{
			"bufferView":22,
			"componentType":5126,
			"count":2,
			"type":"VEC3"
		},
		{
			"bufferView":23,
			"componentType":5126,
			"count":2,
			"type":"VEC3"
		},
		{
			"bufferView":24,
			"componentType":5126,
			"count":48,
			"type":"VEC4"
		},
		{
			"bufferView":25,
			"componentType":5126,
			"count":2,
			"type":"VEC3"
		}
	],
	"bufferViews":[
		{
			"buffer":0,
			"byteLength":432,
			"byteOffset":0,
			"target":34962
		},
		{
			"buffer":0,
			"byteLength":432,
			"byteOffset":432,
			"target":34962
		},
		{
			"buffer":0,
			"byteLength":288,
			"byteOffset":864,
			"target":34962
		},
		{
			"buffer":0,
			"byteLength":288,
			"byteOffset":1152,
			"target":34962
		},
		{
			"buffer":0,
			"byteLength":156,
			"byteOffset":1440,
			"target":34963
		},
		{
			"buffer":0,
			"byteLength":384,
			"byteOffset":1596,
			"target":34962
		},
		{
			"buffer":0,
			"byteLength":384,
			"byteOffset":1980,
			"target":34962
		},
		{
			"buffer":0,
			"byteLength":256,
			"byteOffset":2364,
			"target":34962
		},
		{
			"buffer":0,
			"byteLength":256,
			"byteOffset":2620,
			"target":34962
		},
		{
			"buffer":0,
			"byteLength":96,
			"byteOffset":2876,
			"target":34963
		},
		{
			"buffer":0,
			"byteLength":432,
			"byteOffset":2972,
			"target":34962
		},
		{
			"buffer":0,
			"byteLength":432,
			"byteOffset":3404,
			"target":34962
		},
		{
			"buffer":0,
			"byteLength":288,
			"byteOffset":3836,
			"target":34962
		},
		{
			"buffer":0,
			"byteLength":288,
			"byteOffset":4124,
			"target":34962
		},
		{
			"buffer":0,
			"byteLength":384,
			"byteOffset":4412,
			"target":34962
		},
		{
			"buffer":0,
			"byteLength":384,
			"byteOffset":4796,
			"target":34962
		},
		{
			"buffer":0,
			"byteLength":256,
			"byteOffset":5180,
			"target":34962
		},
		{
			"buffer":0,
			"byteLength":256,
			"byteOffset":5436,
			"target":34962
		},
		{
			"buffer":0,
			"byteLength":8,
			"byteOffset":5692
		},
		{
			"buffer":0,
			"byteLength":24,
			"byteOffset":5700
		},
		{
			"buffer":0,
			"byteLength":192,
			"byteOffset":5724
		},
		{
			"buffer":0,
			"byteLength":768,
			"byteOffset":5916
		},
		{
			"buffer":0,
			"byteLength":24,
			"byteOffset":6684
		},
		{
			"buffer":0,
			"byteLength":24,
			"byteOffset":6708
		},
		{
			"buffer":0,
			"byteLength":768,
			"byteOffset":6732
		},
		{
			"buffer":0,
			"byteLength":24,
			"byteOffset":7500
		}
	],
	"buffers":[
		{
			"byteLength":7524,
			"uri":"Door.bin"
		}
	]
}
